<?xml version="1.0" encoding="UTF-8" standalone="no"?>
<!DOCTYPE svg PUBLIC "-//W3C//DTD SVG 1.1//EN" "http://www.w3.org/Graphics/SVG/1.1/DTD/svg11.dtd">
<svg width="100%" height="100%" viewBox="0 0 630 359" version="1.1" xmlns="http://www.w3.org/2000/svg" xmlns:xlink="http://www.w3.org/1999/xlink" xml:space="preserve" xmlns:serif="http://www.serif.com/" style="fill-rule:evenodd;clip-rule:evenodd;stroke-linejoin:round;stroke-miterlimit:2;">
    <g transform="matrix(1,0,0,1,-2066,0)">
        <g id="Artboard2" transform="matrix(0.809487,0,0,1.42765,393.01,0)">
            <rect x="2066.73" y="0" width="778.271" height="251.221" style="fill:none;"/>
            <g transform="matrix(1.23535,0,0,0.700453,1434.38,-29.7065)">
                <g transform="matrix(1.17901,0,0,1.17901,510.779,40.8802)">
                    <g transform="matrix(0.922391,0,0,1.15836,-321.69,-69.9424)">
                        <rect x="354.958" y="68.589" width="19.618" height="1.565" style="fill:rgb(196,196,83);"/>
                    </g>
                    <g transform="matrix(0.922391,0,0,1.15836,-321.69,-64.9068)">
                        <rect x="354.958" y="68.589" width="19.618" height="1.565" style="fill:rgb(196,196,83);"/>
                    </g>
                </g>
                <g transform="matrix(1.26528,0,0,1.20126,508.696,40.7518)">
                    <path d="M25.135,5.772C25.135,5.197 24.693,4.731 24.147,4.731L6.667,4.731C6.121,4.731 5.679,5.197 5.679,5.772L5.679,18.989C5.679,19.564 6.121,20.029 6.667,20.029L24.147,20.029C24.693,20.029 25.135,19.564 25.135,18.989L25.135,5.772ZM7.654,6.812L7.654,17.948L23.159,17.948L23.159,6.812L7.654,6.812Z" style="fill:rgb(168,168,0);"/>
                </g>
            </g>
            <g transform="matrix(1.23535,0,0,0.700453,1434.38,-29.7065)">
                <g transform="matrix(1.17901,0,0,1.17901,510.779,40.8802)">
                    <g transform="matrix(0.848169,0,0,0.848169,-294.616,-48.667)">
                        <rect x="357.988" y="87.521" width="2.289" height="15.621" style="fill:rgb(255,140,83);"/>
                    </g>
                    <g transform="matrix(0.848169,0,0,0.848169,-294.616,-48.667)">
                        <rect x="363.71" y="88.993" width="2.289" height="13.377" style="fill:rgb(255,140,83);"/>
                    </g>
                    <g transform="matrix(0.848169,0,0,0.848169,-294.616,-48.667)">
                        <rect x="369.719" y="88.993" width="2.504" height="13.377" style="fill:rgb(255,140,83);"/>
                    </g>
                </g>
                <g transform="matrix(1.26528,0,0,1.20126,508.696,64.3114)">
                    <path d="M25.135,5.772C25.135,5.197 24.693,4.731 24.147,4.731L6.667,4.731C6.121,4.731 5.679,5.197 5.679,5.772L5.679,18.989C5.679,19.564 6.121,20.029 6.667,20.029L24.147,20.029C24.693,20.029 25.135,19.564 25.135,18.989L25.135,5.772ZM7.654,6.812L7.654,17.948L23.159,17.948L23.159,6.812L7.654,6.812Z" style="fill:rgb(255,85,0);"/>
                </g>
            </g>
            <g transform="matrix(1.23535,0,0,0.700453,1434.38,-29.7065)">
                <g transform="matrix(1.17901,0,0,1.17901,510.779,40.8802)">
                    <g transform="matrix(0.848169,0,0,0.900217,-294.67,86.249)">
                        <rect x="357.988" y="87.521" width="2.289" height="15.621" style="fill:rgb(255,197,83);"/>
                    </g>
                    <g transform="matrix(0.848169,0,0,0.900217,-294.67,86.249)">
                        <rect x="363.71" y="88.993" width="2.289" height="13.377" style="fill:rgb(255,197,83);"/>
                    </g>
                    <g transform="matrix(0.848169,0,0,0.900217,-294.67,86.249)">
                        <rect x="369.719" y="88.993" width="2.504" height="13.377" style="fill:rgb(255,197,83);"/>
                    </g>
                </g>
                <g transform="matrix(1.26528,0,0,1.20126,508.696,229.229)">
                    <path d="M25.135,5.772C25.135,5.197 24.693,4.731 24.147,4.731L6.667,4.731C6.121,4.731 5.679,5.197 5.679,5.772L5.679,18.989C5.679,19.564 6.121,20.029 6.667,20.029L24.147,20.029C24.693,20.029 25.135,19.564 25.135,18.989L25.135,5.772ZM7.654,6.812L7.654,17.948L23.159,17.948L23.159,6.812L7.654,6.812Z" style="fill:rgb(255,170,0);"/>
                </g>
            </g>
            <g transform="matrix(1.23535,0,0,0.700453,1434.38,-29.7065)">
                <g transform="matrix(1.17901,0,0,1.17901,510.779,40.8802)">
                    <g transform="matrix(0.848169,0,0,0.848169,-294.616,-48.667)">
                        <rect x="356.559" y="275.998" width="4.933" height="15.867" style="fill:rgb(255,0,0);"/>
                    </g>
                    <g transform="matrix(0.848169,0,0,0.848169,-294.616,-48.667)">
                        <rect x="368.556" y="275.998" width="4.65" height="16.225" style="fill:rgb(255,0,0);"/>
                    </g>
                </g>
                <g transform="matrix(1.26528,0,0,1.20126,508.696,252.789)">
                    <path d="M25.135,5.772C25.135,5.197 24.693,4.731 24.147,4.731L6.667,4.731C6.121,4.731 5.679,5.197 5.679,5.772L5.679,18.989C5.679,19.564 6.121,20.029 6.667,20.029L24.147,20.029C24.693,20.029 25.135,19.564 25.135,18.989L25.135,5.772ZM7.654,6.812L7.654,17.948L23.159,17.948L23.159,6.812L7.654,6.812Z" style="fill:rgb(255,0,0);"/>
                </g>
            </g>
            <g transform="matrix(1.23535,0,0,0.700453,1434.38,-29.7065)">
                <g transform="matrix(1.17901,0,0,1.17901,510.779,40.8802)">
                    <g transform="matrix(0.848169,0,0,0.848169,-294.616,-48.667)">
                        <rect x="354.099" y="303.4" width="22.057" height="2.504" style="fill:rgb(83,160,134);"/>
                    </g>
                    <g transform="matrix(0.848169,0,0,0.848169,-294.616,-48.667)">
                        <rect x="354.099" y="309.212" width="22.057" height="2.414" style="fill:rgb(83,160,134);"/>
                    </g>
                </g>
                <g transform="matrix(1.26528,0,0,1.20126,508.696,276.348)">
                    <path d="M25.135,5.772C25.135,5.197 24.693,4.731 24.147,4.731L6.667,4.731C6.121,4.731 5.679,5.197 5.679,5.772L5.679,18.989C5.679,19.564 6.121,20.029 6.667,20.029L24.147,20.029C24.693,20.029 25.135,19.564 25.135,18.989L25.135,5.772ZM7.654,6.812L7.654,17.948L23.159,17.948L23.159,6.812L7.654,6.812Z" style="fill:rgb(0,115,76);"/>
                </g>
            </g>
            <g transform="matrix(1.23535,0,0,0.700453,1434.38,-29.7065)">
                <g transform="matrix(1.17901,0,0,1.17901,510.779,40.8802)">
                    <g transform="matrix(0.848169,0,0,0.848169,-294.616,-48.667)">
                        <rect x="357.925" y="323.118" width="2.352" height="15.621" style="fill:rgb(109,160,83);"/>
                    </g>
                    <g transform="matrix(0.731872,0,0,0.848169,-252.563,-48.667)">
                        <rect x="364.209" y="323.118" width="2.608" height="15.621" style="fill:rgb(109,160,83);"/>
                    </g>
                    <g transform="matrix(0.848169,0,0,0.848169,-294.616,-48.667)">
                        <rect x="369.656" y="323.118" width="2.081" height="15.621" style="fill:rgb(109,160,83);"/>
                    </g>
                </g>
                <g transform="matrix(1.26528,0,0,1.20126,508.696,299.908)">
                    <path d="M25.135,5.772C25.135,5.197 24.693,4.731 24.147,4.731L6.667,4.731C6.121,4.731 5.679,5.197 5.679,5.772L5.679,18.989C5.679,19.564 6.121,20.029 6.667,20.029L24.147,20.029C24.693,20.029 25.135,19.564 25.135,18.989L25.135,5.772ZM7.654,6.812L7.654,17.948L23.159,17.948L23.159,6.812L7.654,6.812Z" style="fill:rgb(38,115,0);"/>
                </g>
            </g>
            <g transform="matrix(1.23535,0,0,0.700453,1434.38,-29.7065)">
                <g transform="matrix(1.17901,0,0,1.17901,510.779,40.8802)">
                    <g transform="matrix(0.848169,0,0,0.848169,-294.616,-48.667)">
                        <rect x="354.227" y="349.269" width="21.393" height="4.739" style="fill:rgb(0,77,168);"/>
                    </g>
                    <g transform="matrix(0.848169,0,0,0.848169,-294.616,-48.667)">
                        <rect x="354.227" y="360.893" width="21.393" height="1.405" style="fill:rgb(0,77,168);"/>
                    </g>
                </g>
                <g transform="matrix(1.26528,0,0,1.20126,508.696,323.467)">
                    <path d="M25.135,5.772C25.135,5.197 24.693,4.731 24.147,4.731L6.667,4.731C6.121,4.731 5.679,5.197 5.679,5.772L5.679,18.989C5.679,19.564 6.121,20.029 6.667,20.029L24.147,20.029C24.693,20.029 25.135,19.564 25.135,18.989L25.135,5.772ZM7.654,6.812L7.654,17.948L23.159,17.948L23.159,6.812L7.654,6.812Z" style="fill:rgb(0,77,168);"/>
                </g>
            </g>
            <g transform="matrix(1.23535,0,0,0.700453,1434.38,-29.7065)">
                <g transform="matrix(1.17901,0,0,1.17901,510.779,40.8802)">
                    <g transform="matrix(0.848169,0,0,0.848169,-294.616,-28.7216)">
                        <rect x="354.227" y="349.269" width="21.393" height="4.739" style="fill:rgb(168,56,0);"/>
                    </g>
                    <g transform="matrix(0.848169,0,0,0.848169,-294.616,-28.7216)">
                        <rect x="354.227" y="360.893" width="21.393" height="1.405" style="fill:rgb(168,56,0);"/>
                    </g>
                </g>
                <g transform="matrix(1.26528,0,0,1.20126,508.696,347.426)">
                    <path d="M25.135,5.772C25.135,5.197 24.693,4.731 24.147,4.731L6.667,4.731C6.121,4.731 5.679,5.197 5.679,5.772L5.679,18.989C5.679,19.564 6.121,20.029 6.667,20.029L24.147,20.029C24.693,20.029 25.135,19.564 25.135,18.989L25.135,5.772ZM7.654,6.812L7.654,17.948L23.159,17.948L23.159,6.812L7.654,6.812Z" style="fill:rgb(168,56,0);"/>
                </g>
            </g>
            <g transform="matrix(1.23535,0,0,0.700453,1434.38,-29.7065)">
                <g transform="matrix(1.23445,0,0,1.17901,509.961,40.8802)">
                    <g transform="matrix(0.848169,0,0,0.848169,-294.616,-48.667)">
                        <rect x="354.958" y="115.562" width="19.618" height="2.217" style="fill:rgb(255,140,83);"/>
                    </g>
                    <g transform="matrix(0.848169,0,0,0.848169,-294.616,-48.667)">
                        <rect x="354.958" y="121.499" width="19.618" height="2.146" style="fill:rgb(255,140,83);"/>
                    </g>
                </g>
                <g transform="matrix(1.26528,0,0,1.20126,508.696,87.8711)">
                    <path d="M25.135,5.772C25.135,5.197 24.693,4.731 24.147,4.731L6.667,4.731C6.121,4.731 5.679,5.197 5.679,5.772L5.679,18.989C5.679,19.564 6.121,20.029 6.667,20.029L24.147,20.029C24.693,20.029 25.135,19.564 25.135,18.989L25.135,5.772ZM7.654,6.812L7.654,17.948L23.159,17.948L23.159,6.812L7.654,6.812Z" style="fill:rgb(255,85,0);"/>
                </g>
            </g>
            <g transform="matrix(1.23535,0,0,0.700453,1434.38,-29.7065)">
                <g transform="matrix(1.23445,0,0,1.23445,509.961,36.8634)">
                    <g transform="matrix(0.848169,0,0,0.848169,-294.616,-48.667)">
                        <rect x="357.988" y="136.113" width="2.289" height="13.377" style="fill:rgb(255,103,27);"/>
                    </g>
                    <g transform="matrix(0.848169,0,0,0.848169,-294.616,-48.667)">
                        <rect x="363.71" y="136.113" width="2.289" height="13.377" style="fill:rgb(255,103,27);"/>
                    </g>
                    <g transform="matrix(0.848169,0,0,0.848169,-294.616,-48.667)">
                        <rect x="369.719" y="136.113" width="2.504" height="13.377" style="fill:rgb(255,103,27);"/>
                    </g>
                    <g transform="matrix(0.848169,0,0,0.848169,-294.616,-48.667)">
                        <rect x="354.958" y="138.953" width="19.618" height="2.504" style="fill:rgb(255,103,27);"/>
                    </g>
                    <g transform="matrix(0.848169,0,0,0.848169,-294.616,-48.667)">
                        <rect x="354.958" y="144.819" width="19.618" height="2.432" style="fill:rgb(255,103,27);"/>
                    </g>
                </g>
                <g transform="matrix(1.26528,0,0,1.20126,508.696,111.431)">
                    <path d="M25.135,5.772C25.135,5.197 24.693,4.731 24.147,4.731L6.667,4.731C6.121,4.731 5.679,5.197 5.679,5.772L5.679,18.989C5.679,19.564 6.121,20.029 6.667,20.029L24.147,20.029C24.693,20.029 25.135,19.564 25.135,18.989L25.135,5.772ZM7.654,6.812L7.654,17.948L23.159,17.948L23.159,6.812L7.654,6.812Z" style="fill:rgb(255,85,0);"/>
                </g>
            </g>
            <g transform="matrix(1.23535,0,0,0.700453,1434.38,-29.7065)">
                <g transform="matrix(1.26196,0,0,1.26196,509.554,16.5807)">
                    <g transform="matrix(0.848169,0,0,0.848169,-294.616,171.818)">
                        <rect x="357.988" y="136.113" width="2.289" height="13.377" style="fill:rgb(118,72,27);"/>
                    </g>
                    <g transform="matrix(0.848169,0,0,0.848169,-294.616,171.818)">
                        <rect x="363.71" y="136.113" width="2.289" height="13.377" style="fill:rgb(118,72,27);"/>
                    </g>
                    <g transform="matrix(0.848169,0,0,0.848169,-294.616,171.818)">
                        <rect x="369.719" y="136.113" width="2.504" height="13.377" style="fill:rgb(118,72,27);"/>
                    </g>
                    <g transform="matrix(0.848169,0,0,0.848169,-294.616,171.818)">
                        <rect x="354.958" y="138.953" width="19.618" height="2.504" style="fill:rgb(118,72,27);"/>
                    </g>
                    <g transform="matrix(0.848169,0,0,0.848169,-294.616,171.818)">
                        <rect x="354.958" y="144.819" width="19.618" height="2.432" style="fill:rgb(118,72,27);"/>
                    </g>
                </g>
                <g transform="matrix(1.26528,0,0,1.20126,508.696,371.385)">
                    <path d="M25.135,5.772C25.135,5.197 24.693,4.731 24.147,4.731L6.667,4.731C6.121,4.731 5.679,5.197 5.679,5.772L5.679,18.989C5.679,19.564 6.121,20.029 6.667,20.029L24.147,20.029C24.693,20.029 25.135,19.564 25.135,18.989L25.135,5.772ZM7.654,6.812L7.654,17.948L23.159,17.948L23.159,6.812L7.654,6.812Z" style="fill:rgb(102,51,0);"/>
                </g>
            </g>
            <g transform="matrix(1.23535,0,0,0.700453,1434.38,-29.7065)">
                <g transform="matrix(1.17901,0,0,1.17901,510.779,40.8802)">
                    <g transform="matrix(0.812956,-0.812956,0.599746,0.599746,-390.317,282.267)">
                        <rect x="357.272" y="177.58" width="16.238" height="1.931" style="fill:rgb(255,0,0);"/>
                    </g>
                    <g transform="matrix(0.604051,-0.604051,0.599746,0.599746,-308.598,207.631)">
                        <rect x="357.272" y="177.58" width="16.238" height="1.931" style="fill:rgb(255,0,0);"/>
                    </g>
                    <g transform="matrix(0.521418,-0.521418,0.599746,0.599746,-288.121,173.114)">
                        <rect x="357.272" y="177.58" width="16.238" height="1.931" style="fill:rgb(255,0,0);"/>
                    </g>
                    <g transform="matrix(0.193149,-0.193149,0.599746,0.599746,-154.831,61.0014)">
                        <rect x="357.272" y="177.58" width="16.238" height="1.931" style="fill:rgb(255,0,0);"/>
                    </g>
                    <g transform="matrix(0.118403,-0.118403,0.599746,0.599746,-144.094,22.5489)">
                        <rect x="357.272" y="177.58" width="16.238" height="1.931" style="fill:rgb(255,0,0);"/>
                    </g>
                </g>
                <g transform="matrix(1.26528,0,0,1.20126,508.696,134.99)">
                    <path d="M25.135,5.772C25.135,5.197 24.693,4.731 24.147,4.731L6.667,4.731C6.121,4.731 5.679,5.197 5.679,5.772L5.679,18.989C5.679,19.564 6.121,20.029 6.667,20.029L24.147,20.029C24.693,20.029 25.135,19.564 25.135,18.989L25.135,5.772ZM7.654,6.812L7.654,17.948L23.159,17.948L23.159,6.812L7.654,6.812Z" style="fill:rgb(255,0,0);"/>
                </g>
            </g>
            <g transform="matrix(1.23535,0,0,0.700453,1434.38,-29.7065)">
                <g transform="matrix(-1.17901,1.44387e-16,-1.44387e-16,-1.17901,545.729,305.877)">
                    <g transform="matrix(0.812956,-0.812956,0.599746,0.599746,-390.317,282.267)">
                        <rect x="357.272" y="177.58" width="16.238" height="1.931" style="fill:rgb(200,17,255);"/>
                    </g>
                    <g transform="matrix(0.604051,-0.604051,0.599746,0.599746,-308.598,207.631)">
                        <rect x="357.272" y="177.58" width="16.238" height="1.931" style="fill:rgb(200,17,255);"/>
                    </g>
                    <g transform="matrix(0.521418,-0.521418,0.599746,0.599746,-288.121,173.114)">
                        <rect x="357.272" y="177.58" width="16.238" height="1.931" style="fill:rgb(200,17,255);"/>
                    </g>
                    <g transform="matrix(0.193149,-0.193149,0.599746,0.599746,-154.831,61.0014)">
                        <rect x="357.272" y="177.58" width="16.238" height="1.931" style="fill:rgb(200,17,255);"/>
                    </g>
                    <g transform="matrix(0.118403,-0.118403,0.599746,0.599746,-144.094,22.5489)">
                        <rect x="357.272" y="177.58" width="16.238" height="1.931" style="fill:rgb(200,17,255);"/>
                    </g>
                </g>
                <g transform="matrix(1.26528,0,0,1.20126,508.696,182.11)">
                    <path d="M25.135,5.772C25.135,5.197 24.693,4.731 24.147,4.731L6.667,4.731C6.121,4.731 5.679,5.197 5.679,5.772L5.679,18.989C5.679,19.564 6.121,20.029 6.667,20.029L24.147,20.029C24.693,20.029 25.135,19.564 25.135,18.989L25.135,5.772ZM7.654,6.812L7.654,17.948L23.159,17.948L23.159,6.812L7.654,6.812Z" style="fill:rgb(197,0,255);"/>
                </g>
            </g>
            <g transform="matrix(1.23535,0,0,0.700453,1434.38,-29.7065)">
                <g transform="matrix(-1.17901,1.44387e-16,-1.44387e-16,-1.17901,545.729,329.396)">
                    <g transform="matrix(0.812956,-0.812956,0.599746,0.599746,-390.317,282.267)">
                        <rect x="357.272" y="177.58" width="16.238" height="1.931" style="fill:rgb(0,197,255);"/>
                    </g>
                    <g transform="matrix(0.604051,-0.604051,0.599746,0.599746,-308.598,207.631)">
                        <rect x="357.272" y="177.58" width="16.238" height="1.931" style="fill:rgb(0,197,255);"/>
                    </g>
                    <g transform="matrix(0.521418,-0.521418,0.599746,0.599746,-288.121,173.114)">
                        <rect x="357.272" y="177.58" width="16.238" height="1.931" style="fill:rgb(0,197,255);"/>
                    </g>
                    <g transform="matrix(0.193149,-0.193149,0.599746,0.599746,-154.831,61.0014)">
                        <rect x="357.272" y="177.58" width="16.238" height="1.931" style="fill:rgb(0,197,255);"/>
                    </g>
                    <g transform="matrix(0.118403,-0.118403,0.599746,0.599746,-144.094,22.5489)">
                        <rect x="357.272" y="177.58" width="16.238" height="1.931" style="fill:rgb(0,197,255);"/>
                    </g>
                </g>
                <g transform="matrix(1.26528,0,0,1.20126,508.696,205.669)">
                    <path d="M25.135,5.772C25.135,5.197 24.693,4.731 24.147,4.731L6.667,4.731C6.121,4.731 5.679,5.197 5.679,5.772L5.679,18.989C5.679,19.564 6.121,20.029 6.667,20.029L24.147,20.029C24.693,20.029 25.135,19.564 25.135,18.989L25.135,5.772ZM7.654,6.812L7.654,17.948L23.159,17.948L23.159,6.812L7.654,6.812Z" style="fill:rgb(0,197,255);"/>
                </g>
            </g>
            <g transform="matrix(1.23535,0,0,0.700453,1434.38,-29.7065)">
                <g transform="matrix(1.17901,1.44387e-16,1.44387e-16,-1.17901,510.779,282.176)">
                    <g transform="matrix(0.812956,-0.812956,0.599746,0.599746,-390.317,282.267)">
                        <rect x="357.272" y="177.58" width="16.238" height="1.931" style="fill:rgb(255,115,223);"/>
                    </g>
                    <g transform="matrix(0.604051,-0.604051,0.599746,0.599746,-308.598,207.631)">
                        <rect x="357.272" y="177.58" width="16.238" height="1.931" style="fill:rgb(255,115,223);"/>
                    </g>
                    <g transform="matrix(0.521418,-0.521418,0.599746,0.599746,-288.121,173.114)">
                        <rect x="357.272" y="177.58" width="16.238" height="1.931" style="fill:rgb(255,115,223);"/>
                    </g>
                    <g transform="matrix(0.193149,-0.193149,0.599746,0.599746,-154.831,61.0014)">
                        <rect x="357.272" y="177.58" width="16.238" height="1.931" style="fill:rgb(255,115,223);"/>
                    </g>
                    <g transform="matrix(0.118403,-0.118403,0.599746,0.599746,-144.094,22.5489)">
                        <rect x="357.272" y="177.58" width="16.238" height="1.931" style="fill:rgb(255,115,223);"/>
                    </g>
                </g>
                <g transform="matrix(1.26528,0,0,1.20126,508.696,158.55)">
                    <path d="M25.135,5.772C25.135,5.197 24.693,4.731 24.147,4.731L6.667,4.731C6.121,4.731 5.679,5.197 5.679,5.772L5.679,18.989C5.679,19.564 6.121,20.029 6.667,20.029L24.147,20.029C24.693,20.029 25.135,19.564 25.135,18.989L25.135,5.772ZM7.654,6.812L7.654,17.948L23.159,17.948L23.159,6.812L7.654,6.812Z" style="fill:rgb(255,115,223);"/>
                </g>
            </g>
            <g transform="matrix(1.49313,0,0,0.846614,2063.69,-2.17197)">
                <text x="32.674px" y="19.238px" style="font-family:'CenturyGothic', 'Century Gothic', sans-serif;font-size:15.513px;">Ackerschonstreifen</text>
            </g>
            <g transform="matrix(1.49313,0,0,0.846614,2063.69,14.3304)">
                <text x="32.674px" y="19.238px" style="font-family:'CenturyGothic', 'Century Gothic', sans-serif;font-size:15.513px;">Buntbrache</text>
            </g>
            <g transform="matrix(1.49313,0,0,0.846614,2063.69,30.8329)">
                <text x="32.674px" y="19.238px" style="font-family:'CenturyGothic', 'Century Gothic', sans-serif;font-size:15.513px;">Rotationsbrache</text>
            </g>
            <g transform="matrix(1.49313,0,0,0.846614,2063.69,47.3353)">
                <text x="32.674px" y="19.238px" style="font-family:'CenturyGothic', 'Century Gothic', sans-serif;font-size:15.513px;">Saum auf Ackerﬂäche</text>
            </g>
            <g transform="matrix(1.49313,0,0,0.846614,2063.69,63.8377)">
                <text x="32.674px" y="19.238px" style="font-family:'CenturyGothic', 'Century Gothic', sans-serif;font-size:15.513px;">Blühstreifen für Bestäuber und andere Nützlinge</text>
            </g>
            <g transform="matrix(1.49313,0,0,0.846614,2063.69,80.3401)">
                <text x="32.674px" y="19.238px" style="font-family:'CenturyGothic', 'Century Gothic', sans-serif;font-size:15.513px;">Extensiv genutzte Wiesen (ohne Weiden)</text>
            </g>
            <g transform="matrix(1.49313,0,0,0.846614,2063.69,96.8425)">
                <text x="32.674px" y="19.238px" style="font-family:'CenturyGothic', 'Century Gothic', sans-serif;font-size:15.513px;">Wenig intensiv genutzte Wiesen (ohne Weiden)</text>
            </g>
            <g transform="matrix(1.49313,0,0,0.846614,2063.69,113.345)">
                <text x="32.674px" y="19.238px" style="font-family:'CenturyGothic', 'Century Gothic', sans-serif;font-size:15.513px;">Uferwiesen entlang von Fliessgewässern (ohne Weiden)</text>
            </g>
            <g transform="matrix(1.49313,0,0,0.846614,2063.69,129.847)">
                <text x="32.674px" y="19.238px" style="font-family:'CenturyGothic', 'Century Gothic', sans-serif;font-size:15.513px;">Extensiv genutzte Weiden</text>
            </g>
            <g transform="matrix(1.49313,0,0,0.846614,2063.69,146.35)">
                <text x="32.674px" y="19.238px" style="font-family:'CenturyGothic', 'Century Gothic', sans-serif;font-size:15.513px;">Rebﬂächen mit natürlicher Artenvielfalt</text>
            </g>
            <g transform="matrix(1.49313,0,0,0.846614,2063.69,162.852)">
                <text x="32.674px" y="19.238px" style="font-family:'CenturyGothic', 'Century Gothic', sans-serif;font-size:15.513px;">Streuﬂächen in der LN</text>
            </g>
            <g transform="matrix(1.49313,0,0,0.846614,2063.69,179.355)">
                <text x="32.674px" y="19.238px" style="font-family:'CenturyGothic', 'Century Gothic', sans-serif;font-size:15.513px;">Hecken-, Feld- und Ufergehölze (mit Krautersaum)</text>
            </g>
            <g transform="matrix(1.49313,0,0,0.846614,2063.69,195.857)">
                <text x="32.674px" y="19.238px" style="font-family:'CenturyGothic', 'Century Gothic', sans-serif;font-size:15.513px;">Wassergräben, Tümpel, Teiche</text>
            </g>
            <g transform="matrix(1.49313,0,0,0.846614,2063.69,212.639)">
                <text x="32.674px" y="19.238px" style="font-family:'CenturyGothic', 'Century Gothic', sans-serif;font-size:15.513px;">Ruderalﬂächen, Steinhaufen und -wälle</text>
            </g>
            <g transform="matrix(1.49313,0,0,0.846614,2063.69,229.421)">
                <text x="32.674px" y="19.238px" style="font-family:'CenturyGothic', 'Century Gothic', sans-serif;font-size:15.513px;">BFF QI Restﬂächen</text>
            </g>
        </g>
    </g>
</svg>
