<?xml version="1.0" encoding="UTF-8" standalone="no"?>
<!DOCTYPE svg PUBLIC "-//W3C//DTD SVG 1.1//EN" "http://www.w3.org/Graphics/SVG/1.1/DTD/svg11.dtd">
<svg width="100%" height="100%" viewBox="0 0 630 308" version="1.1" xmlns="http://www.w3.org/2000/svg" xmlns:xlink="http://www.w3.org/1999/xlink" xml:space="preserve" xmlns:serif="http://www.serif.com/" style="fill-rule:evenodd;clip-rule:evenodd;stroke-linejoin:round;stroke-miterlimit:2;">
    <g transform="matrix(1,0,0,1,-2066,-378.478)">
        <g id="Artboard3" transform="matrix(1,0,0,0.857937,-838.333,378.478)">
            <rect x="2904.33" y="0" width="630" height="358.656" style="fill:none;"/>
            <g transform="matrix(1.26528,0,0,1.40017,2899.9,-2.54857)">
                <rect x="6.667" y="5.772" width="17.481" height="13.217" style="fill:rgb(255,224,162);"/>
            </g>
            <g transform="matrix(1.20867,0,0,1.40881,2900.62,-4.22949)">
                <text x="32.674px" y="19.238px" style="font-family:'CenturyGothic', 'Century Gothic', sans-serif;font-size:15.513px;">Ackerﬂäche</text>
            </g>
            <g transform="matrix(1.26528,0,0,1.40017,2899.9,24.9122)">
                <rect x="6.667" y="5.772" width="17.481" height="13.217" style="fill:rgb(193,255,193);"/>
            </g>
            <g transform="matrix(1.20867,0,0,1.40881,2900.62,23.2313)">
                <text x="32.674px" y="19.238px" style="font-family:'CenturyGothic', 'Century Gothic', sans-serif;font-size:15.513px;">Dauerwiesen</text>
            </g>
            <g transform="matrix(1.26528,0,0,1.40017,2899.9,52.3731)">
                <rect x="6.667" y="5.772" width="17.481" height="13.217" style="fill:rgb(224,255,162);"/>
            </g>
            <g transform="matrix(1.20867,0,0,1.40881,2900.62,50.6921)">
                <text x="32.674px" y="19.238px" style="font-family:'CenturyGothic', 'Century Gothic', sans-serif;font-size:15.513px;">Dauerweiden</text>
            </g>
            <g transform="matrix(1.26528,0,0,1.40017,2899.9,79.8339)">
                <rect x="6.667" y="5.772" width="17.481" height="13.217" style="fill:rgb(255,162,224);"/>
            </g>
            <g transform="matrix(1.20867,0,0,1.40881,2900.62,78.1529)">
                <text x="32.674px" y="19.238px" style="font-family:'CenturyGothic', 'Century Gothic', sans-serif;font-size:15.513px;">Reben</text>
            </g>
            <g transform="matrix(1.26528,0,0,1.40017,2899.9,107.295)">
                <rect x="6.667" y="5.772" width="17.481" height="13.217" style="fill:rgb(255,162,132);"/>
            </g>
            <g transform="matrix(1.20867,0,0,1.40881,2900.62,105.614)">
                <text x="32.674px" y="19.238px" style="font-family:'CenturyGothic', 'Century Gothic', sans-serif;font-size:15.513px;">Obstanlagen</text>
            </g>
            <g transform="matrix(1.26528,0,0,1.40017,2899.9,134.755)">
                <rect x="6.667" y="5.772" width="17.481" height="13.217" style="fill:rgb(224,224,101);"/>
            </g>
            <g transform="matrix(1.20867,0,0,1.40881,2900.62,133.075)">
                <text x="32.674px" y="19.238px" style="font-family:'CenturyGothic', 'Century Gothic', sans-serif;font-size:15.513px;">Übrige Dauerkulturen</text>
            </g>
            <g transform="matrix(1.26528,0,0,1.40017,2899.9,162.216)">
                <rect x="6.667" y="5.772" width="17.481" height="13.217" style="fill:rgb(162,193,193);"/>
            </g>
            <g transform="matrix(1.20867,0,0,1.40881,2900.62,160.535)">
                <text x="32.674px" y="19.238px" style="font-family:'CenturyGothic', 'Century Gothic', sans-serif;font-size:15.513px;">Geschützter Anbau</text>
            </g>
            <g transform="matrix(1.26528,0,0,1.40017,2899.9,189.677)">
                <rect x="6.667" y="5.772" width="17.481" height="13.217" style="fill:rgb(132,224,255);"/>
            </g>
            <g transform="matrix(1.20867,0,0,1.40881,2900.62,187.996)">
                <text x="32.674px" y="19.238px" style="font-family:'CenturyGothic', 'Century Gothic', sans-serif;font-size:15.513px;">Streuﬂächen</text>
            </g>
            <g transform="matrix(1.26528,0,0,1.40017,2899.9,217.138)">
                <rect x="6.667" y="5.772" width="17.481" height="13.217" style="fill:rgb(193,162,101);"/>
            </g>
            <g transform="matrix(1.20867,0,0,1.40881,2900.62,215.457)">
                <text x="32.674px" y="19.238px" style="font-family:'CenturyGothic', 'Century Gothic', sans-serif;font-size:15.513px;">Hecken-, Feld- und Ufergehölze</text>
            </g>
            <g transform="matrix(1.26528,0,0,1.40017,2899.9,244.599)">
                <rect x="6.667" y="5.772" width="17.481" height="13.217" style="fill:rgb(193,193,193);"/>
            </g>
            <g transform="matrix(1.20867,0,0,1.40881,2900.62,242.918)">
                <text x="32.674px" y="19.238px" style="font-family:'CenturyGothic', 'Century Gothic', sans-serif;font-size:15.513px;">Übrige Fläche innerhalb der LN</text>
            </g>
            <g transform="matrix(1.26528,0,0,1.40017,2899.9,272.06)">
                <rect x="6.667" y="5.772" width="17.481" height="13.217" style="fill:rgb(255,255,193);"/>
            </g>
            <g transform="matrix(1.20867,0,0,1.40881,2900.62,270.379)">
                <text x="32.674px" y="19.238px" style="font-family:'CenturyGothic', 'Century Gothic', sans-serif;font-size:15.513px;">Sömmerungsﬂächen</text>
            </g>
            <g transform="matrix(1.26528,0,0,1.40017,2899.9,299.52)">
                <rect x="6.667" y="5.772" width="17.481" height="13.217" style="fill:rgb(224,224,193);"/>
            </g>
            <g transform="matrix(1.20867,0,0,1.40881,2900.62,297.839)">
                <text x="32.674px" y="19.238px" style="font-family:'CenturyGothic', 'Century Gothic', sans-serif;font-size:15.513px;">Flächen ausserhalb der LN</text>
            </g>
            <g transform="matrix(1.26528,0,0,1.40017,2899.9,326.981)">
                <rect x="6.667" y="5.772" width="17.481" height="13.217" style="fill:rgb(132,162,132);"/>
            </g>
            <g transform="matrix(1.20867,0,0,1.40881,2900.62,325.3)">
                <text x="32.674px" y="19.238px" style="font-family:'CenturyGothic', 'Century Gothic', sans-serif;font-size:15.513px;">Wald</text>
            </g>
        </g>
    </g>
</svg>
