<?xml version="1.0" encoding="UTF-8" standalone="no"?>
<!DOCTYPE svg PUBLIC "-//W3C//DTD SVG 1.1//EN" "http://www.w3.org/Graphics/SVG/1.1/DTD/svg11.dtd">
<svg width="100%" height="100%" viewBox="0 0 630 308" version="1.1" xmlns="http://www.w3.org/2000/svg" xmlns:xlink="http://www.w3.org/1999/xlink" xml:space="preserve" xmlns:serif="http://www.serif.com/" style="fill-rule:evenodd;clip-rule:evenodd;stroke-linejoin:round;stroke-miterlimit:2;">
    <g transform="matrix(1,0,0,1,-2066,-710.933)">
        <g id="Artboard4" transform="matrix(1,0,0,1,-838.333,710.933)">
            <rect x="2904.33" y="0" width="630" height="307.704" style="fill:none;"/>
            <g transform="matrix(1,0,0,1,2883.81,-10.9848)">
                <path d="M49.237,16.284C49.237,15.566 48.655,14.985 47.937,14.985L25.819,14.985C25.102,14.985 24.52,15.566 24.52,16.284L24.52,32.161C24.52,32.879 25.102,33.46 25.819,33.46L47.937,33.46C48.655,33.46 49.237,32.879 49.237,32.161L49.237,16.284ZM34.434,17.583L34.434,24.001L30.522,24.001L30.522,17.583L27.119,17.583L27.119,30.862L38.905,30.862L38.905,24.001L42.817,24.001L42.817,30.862L46.638,30.862L46.638,17.583L34.434,17.583Z" style="fill:rgb(255,204,102);"/>
            </g>
            <g transform="matrix(1,0,0,1,2883.81,12.5749)">
                <path d="M49.237,16.284C49.237,15.566 48.655,14.985 47.937,14.985L25.819,14.985C25.102,14.985 24.52,15.566 24.52,16.284L24.52,32.161C24.52,32.879 25.102,33.46 25.819,33.46L47.937,33.46C48.655,33.46 49.237,32.879 49.237,32.161L49.237,16.284ZM34.434,17.583L34.434,24.001L30.522,24.001L30.522,17.583L27.119,17.583L27.119,30.862L38.905,30.862L38.905,24.001L42.817,24.001L42.817,30.862L46.638,30.862L46.638,17.583L34.434,17.583Z" style="fill:rgb(153,255,153);"/>
            </g>
            <g transform="matrix(1,0,0,1,2883.81,36.1345)">
                <path d="M49.237,16.284C49.237,15.566 48.655,14.985 47.937,14.985L25.819,14.985C25.102,14.985 24.52,15.566 24.52,16.284L24.52,32.161C24.52,32.879 25.102,33.46 25.819,33.46L47.937,33.46C48.655,33.46 49.237,32.879 49.237,32.161L49.237,16.284ZM34.434,17.583L34.434,24.001L30.522,24.001L30.522,17.583L27.119,17.583L27.119,30.862L38.905,30.862L38.905,24.001L42.817,24.001L42.817,30.862L46.638,30.862L46.638,17.583L34.434,17.583Z" style="fill:rgb(204,255,102);"/>
            </g>
            <g transform="matrix(1,0,0,1,2883.81,59.6941)">
                <path d="M49.237,16.284C49.237,15.566 48.655,14.985 47.937,14.985L25.819,14.985C25.102,14.985 24.52,15.566 24.52,16.284L24.52,32.161C24.52,32.879 25.102,33.46 25.819,33.46L47.937,33.46C48.655,33.46 49.237,32.879 49.237,32.161L49.237,16.284ZM34.434,17.583L34.434,24.001L30.522,24.001L30.522,17.583L27.119,17.583L27.119,30.862L38.905,30.862L38.905,24.001L42.817,24.001L42.817,30.862L46.638,30.862L46.638,17.583L34.434,17.583Z" style="fill:rgb(255,102,204);"/>
            </g>
            <g transform="matrix(1,0,0,1,2883.81,83.2538)">
                <path d="M49.237,16.284C49.237,15.566 48.655,14.985 47.937,14.985L25.819,14.985C25.102,14.985 24.52,15.566 24.52,16.284L24.52,32.161C24.52,32.879 25.102,33.46 25.819,33.46L47.937,33.46C48.655,33.46 49.237,32.879 49.237,32.161L49.237,16.284ZM34.434,17.583L34.434,24.001L30.522,24.001L30.522,17.583L27.119,17.583L27.119,30.862L38.905,30.862L38.905,24.001L42.817,24.001L42.817,30.862L46.638,30.862L46.638,17.583L34.434,17.583Z" style="fill:rgb(255,102,51);"/>
            </g>
            <g transform="matrix(1,0,0,1,2883.81,106.813)">
                <path d="M49.237,16.284C49.237,15.566 48.655,14.985 47.937,14.985L25.819,14.985C25.102,14.985 24.52,15.566 24.52,16.284L24.52,32.161C24.52,32.879 25.102,33.46 25.819,33.46L47.937,33.46C48.655,33.46 49.237,32.879 49.237,32.161L49.237,16.284ZM34.434,17.583L34.434,24.001L30.522,24.001L30.522,17.583L27.119,17.583L27.119,30.862L38.905,30.862L38.905,24.001L42.817,24.001L42.817,30.862L46.638,30.862L46.638,17.583L34.434,17.583Z" style="fill:rgb(204,204,0);"/>
            </g>
            <g transform="matrix(1,0,0,1,2883.81,130.373)">
                <path d="M49.237,16.284C49.237,15.566 48.655,14.985 47.937,14.985L25.819,14.985C25.102,14.985 24.52,15.566 24.52,16.284L24.52,32.161C24.52,32.879 25.102,33.46 25.819,33.46L47.937,33.46C48.655,33.46 49.237,32.879 49.237,32.161L49.237,16.284ZM34.434,17.583L34.434,24.001L30.522,24.001L30.522,17.583L27.119,17.583L27.119,30.862L38.905,30.862L38.905,24.001L42.817,24.001L42.817,30.862L46.638,30.862L46.638,17.583L34.434,17.583Z" style="fill:rgb(102,153,153);"/>
            </g>
            <g transform="matrix(1,0,0,1,2883.81,153.933)">
                <path d="M49.237,16.284C49.237,15.566 48.655,14.985 47.937,14.985L25.819,14.985C25.102,14.985 24.52,15.566 24.52,16.284L24.52,32.161C24.52,32.879 25.102,33.46 25.819,33.46L47.937,33.46C48.655,33.46 49.237,32.879 49.237,32.161L49.237,16.284ZM34.434,17.583L34.434,24.001L30.522,24.001L30.522,17.583L27.119,17.583L27.119,30.862L38.905,30.862L38.905,24.001L42.817,24.001L42.817,30.862L46.638,30.862L46.638,17.583L34.434,17.583Z" style="fill:rgb(51,204,255);"/>
            </g>
            <g transform="matrix(1,0,0,1,2883.81,177.492)">
                <path d="M49.237,16.284C49.237,15.566 48.655,14.985 47.937,14.985L25.819,14.985C25.102,14.985 24.52,15.566 24.52,16.284L24.52,32.161C24.52,32.879 25.102,33.46 25.819,33.46L47.937,33.46C48.655,33.46 49.237,32.879 49.237,32.161L49.237,16.284ZM34.434,17.583L34.434,24.001L30.522,24.001L30.522,17.583L27.119,17.583L27.119,30.862L38.905,30.862L38.905,24.001L42.817,24.001L42.817,30.862L46.638,30.862L46.638,17.583L34.434,17.583Z" style="fill:rgb(153,102,0);"/>
            </g>
            <g transform="matrix(1,0,0,1,2883.81,201.052)">
                <path d="M49.237,16.284C49.237,15.566 48.655,14.985 47.937,14.985L25.819,14.985C25.102,14.985 24.52,15.566 24.52,16.284L24.52,32.161C24.52,32.879 25.102,33.46 25.819,33.46L47.937,33.46C48.655,33.46 49.237,32.879 49.237,32.161L49.237,16.284ZM34.434,17.583L34.434,24.001L30.522,24.001L30.522,17.583L27.119,17.583L27.119,30.862L38.905,30.862L38.905,24.001L42.817,24.001L42.817,30.862L46.638,30.862L46.638,17.583L34.434,17.583Z" style="fill:rgb(153,153,153);"/>
            </g>
            <g transform="matrix(1,0,0,1,2883.81,224.612)">
                <path d="M49.237,16.284C49.237,15.566 48.655,14.985 47.937,14.985L25.819,14.985C25.102,14.985 24.52,15.566 24.52,16.284L24.52,32.161C24.52,32.879 25.102,33.46 25.819,33.46L47.937,33.46C48.655,33.46 49.237,32.879 49.237,32.161L49.237,16.284ZM34.434,17.583L34.434,24.001L30.522,24.001L30.522,17.583L27.119,17.583L27.119,30.862L38.905,30.862L38.905,24.001L42.817,24.001L42.817,30.862L46.638,30.862L46.638,17.583L34.434,17.583Z" style="fill:rgb(255,255,153);"/>
            </g>
            <g transform="matrix(1,0,0,1,2883.81,248.171)">
                <path d="M49.237,16.284C49.237,15.566 48.655,14.985 47.937,14.985L25.819,14.985C25.102,14.985 24.52,15.566 24.52,16.284L24.52,32.161C24.52,32.879 25.102,33.46 25.819,33.46L47.937,33.46C48.655,33.46 49.237,32.879 49.237,32.161L49.237,16.284ZM34.434,17.583L34.434,24.001L30.522,24.001L30.522,17.583L27.119,17.583L27.119,30.862L38.905,30.862L38.905,24.001L42.817,24.001L42.817,30.862L46.638,30.862L46.638,17.583L34.434,17.583Z" style="fill:rgb(204,204,153);"/>
            </g>
            <g transform="matrix(1,0,0,1,2883.81,271.731)">
                <path d="M49.237,16.284C49.237,15.566 48.655,14.985 47.937,14.985L25.819,14.985C25.102,14.985 24.52,15.566 24.52,16.284L24.52,32.161C24.52,32.879 25.102,33.46 25.819,33.46L47.937,33.46C48.655,33.46 49.237,32.879 49.237,32.161L49.237,16.284ZM34.434,17.583L34.434,24.001L30.522,24.001L30.522,17.583L27.119,17.583L27.119,30.862L38.905,30.862L38.905,24.001L42.817,24.001L42.817,30.862L46.638,30.862L46.638,17.583L34.434,17.583Z" style="fill:rgb(51,102,51);"/>
            </g>
            <g transform="matrix(1.20867,0,0,1.20867,2901.92,-3.0762)">
                <text x="32.674px" y="19.238px" style="font-family:'CenturyGothic', 'Century Gothic', sans-serif;font-size:15.513px;">Ackerﬂäche</text>
            </g>
            <g transform="matrix(1.20867,0,0,1.20867,2901.92,20.4834)">
                <text x="32.674px" y="19.238px" style="font-family:'CenturyGothic', 'Century Gothic', sans-serif;font-size:15.513px;">Dauerwiesen</text>
            </g>
            <g transform="matrix(1.20867,0,0,1.20867,2901.92,44.0431)">
                <text x="32.674px" y="19.238px" style="font-family:'CenturyGothic', 'Century Gothic', sans-serif;font-size:15.513px;">Dauerweiden</text>
            </g>
            <g transform="matrix(1.20867,0,0,1.20867,2901.92,67.6027)">
                <text x="32.674px" y="19.238px" style="font-family:'CenturyGothic', 'Century Gothic', sans-serif;font-size:15.513px;">Reben</text>
            </g>
            <g transform="matrix(1.20867,0,0,1.20867,2901.92,91.1624)">
                <text x="32.674px" y="19.238px" style="font-family:'CenturyGothic', 'Century Gothic', sans-serif;font-size:15.513px;">Obstanlagen</text>
            </g>
            <g transform="matrix(1.20867,0,0,1.20867,2901.92,114.722)">
                <text x="32.674px" y="19.238px" style="font-family:'CenturyGothic', 'Century Gothic', sans-serif;font-size:15.513px;">Übrige Dauerkulturen</text>
            </g>
            <g transform="matrix(1.20867,0,0,1.20867,2901.92,138.282)">
                <text x="32.674px" y="19.238px" style="font-family:'CenturyGothic', 'Century Gothic', sans-serif;font-size:15.513px;">Geschützter Anbau</text>
            </g>
            <g transform="matrix(1.20867,0,0,1.20867,2901.92,161.841)">
                <text x="32.674px" y="19.238px" style="font-family:'CenturyGothic', 'Century Gothic', sans-serif;font-size:15.513px;">Streuﬂächen</text>
            </g>
            <g transform="matrix(1.20867,0,0,1.20867,2901.92,185.401)">
                <text x="32.674px" y="19.238px" style="font-family:'CenturyGothic', 'Century Gothic', sans-serif;font-size:15.513px;">Hecken-, Feld- und Ufergehölze</text>
            </g>
            <g transform="matrix(1.20867,0,0,1.20867,2901.92,208.961)">
                <text x="32.674px" y="19.238px" style="font-family:'CenturyGothic', 'Century Gothic', sans-serif;font-size:15.513px;">Übrige Fläche innerhalb der LN</text>
            </g>
            <g transform="matrix(1.20867,0,0,1.20867,2901.92,232.52)">
                <text x="32.674px" y="19.238px" style="font-family:'CenturyGothic', 'Century Gothic', sans-serif;font-size:15.513px;">Sömmerungsﬂächen</text>
            </g>
            <g transform="matrix(1.20867,0,0,1.20867,2901.92,256.08)">
                <text x="32.674px" y="19.238px" style="font-family:'CenturyGothic', 'Century Gothic', sans-serif;font-size:15.513px;">Flächen ausserhalb der LN</text>
            </g>
            <g transform="matrix(1.20867,0,0,1.20867,2901.92,279.639)">
                <text x="32.674px" y="19.238px" style="font-family:'CenturyGothic', 'Century Gothic', sans-serif;font-size:15.513px;">Wald</text>
            </g>
        </g>
    </g>
</svg>
