<?xml version="1.0" encoding="UTF-8" standalone="no"?>
<!DOCTYPE svg PUBLIC "-//W3C//DTD SVG 1.1//EN" "http://www.w3.org/Graphics/SVG/1.1/DTD/svg11.dtd">
<svg width="100%" height="100%" viewBox="0 0 630 28" version="1.1" xmlns="http://www.w3.org/2000/svg" xmlns:xlink="http://www.w3.org/1999/xlink" xml:space="preserve" xmlns:serif="http://www.serif.com/" style="fill-rule:evenodd;clip-rule:evenodd;stroke-linejoin:round;stroke-miterlimit:2;">
    <g transform="matrix(1,0,0,1,-2065.39,-1043.39)">
        <g id="Artboard5" transform="matrix(1,0,0,0.0883057,-838.944,1043.39)">
            <rect x="2904.33" y="0" width="630" height="307.704" style="fill:none;"/>
            <g class="txt" transform="matrix(1.20867,0,0,13.6873,2901.92,-34.8358)">
                <g transform="matrix(15.513,0,0,15.513,32.6744,19.2382)">
                    <path d="M0.088,-0L0.088,-0.718L0.104,-0.718L0.582,-0.168L0.582,-0.718L0.652,-0.718L0.652,-0L0.636,-0L0.162,-0.544L0.162,-0L0.088,-0Z" style="fill-rule:nonzero;"/>
                </g>
                <g transform="matrix(15.513,0,0,15.513,44.1501,19.2382)">
                    <path d="M0.067,-0.531L0.136,-0.531L0.136,-0.283C0.136,-0.223 0.139,-0.181 0.146,-0.158C0.155,-0.126 0.174,-0.1 0.202,-0.081C0.229,-0.062 0.262,-0.053 0.3,-0.053C0.338,-0.053 0.371,-0.062 0.397,-0.08C0.424,-0.099 0.442,-0.123 0.452,-0.153C0.459,-0.173 0.462,-0.217 0.462,-0.283L0.462,-0.531L0.532,-0.531L0.532,-0.271C0.532,-0.197 0.524,-0.142 0.507,-0.105C0.49,-0.068 0.464,-0.039 0.429,-0.018C0.395,0.003 0.352,0.014 0.3,0.014C0.249,0.014 0.205,0.003 0.171,-0.018C0.136,-0.039 0.11,-0.068 0.093,-0.106C0.076,-0.143 0.067,-0.2 0.067,-0.275L0.067,-0.531Z" style="fill-rule:nonzero;"/>
                </g>
                <g transform="matrix(15.513,0,0,15.513,53.5806,19.2382)">
                    <path d="M0.136,-0.729L0.204,-0.729L0.204,-0.531L0.313,-0.531L0.313,-0.472L0.204,-0.472L0.204,-0L0.136,-0L0.136,-0.472L0.042,-0.472L0.042,-0.531L0.136,-0.531L0.136,-0.729Z" style="fill-rule:nonzero;"/>
                </g>
                <g transform="matrix(15.513,0,0,15.513,58.8374,19.2382)">
                    <path d="M0.033,-0.531L0.423,-0.531L0.122,-0.061L0.413,-0.061L0.413,-0L0.004,-0L0.305,-0.471L0.033,-0.471L0.033,-0.531Z" style="fill-rule:nonzero;"/>
                </g>
                <g transform="matrix(15.513,0,0,15.513,65.4274,19.2382)">
                    <path d="M0.067,-0.531L0.136,-0.531L0.136,-0.283C0.136,-0.223 0.139,-0.181 0.146,-0.158C0.155,-0.126 0.174,-0.1 0.202,-0.081C0.229,-0.062 0.262,-0.053 0.3,-0.053C0.338,-0.053 0.371,-0.062 0.397,-0.08C0.424,-0.099 0.442,-0.123 0.452,-0.153C0.459,-0.173 0.462,-0.217 0.462,-0.283L0.462,-0.531L0.532,-0.531L0.532,-0.271C0.532,-0.197 0.524,-0.142 0.507,-0.105C0.49,-0.068 0.464,-0.039 0.429,-0.018C0.395,0.003 0.352,0.014 0.3,0.014C0.249,0.014 0.205,0.003 0.171,-0.018C0.136,-0.039 0.11,-0.068 0.093,-0.106C0.076,-0.143 0.067,-0.2 0.067,-0.275L0.067,-0.531Z" style="fill-rule:nonzero;"/>
                </g>
                <g transform="matrix(15.513,0,0,15.513,74.8579,19.2382)">
                    <path d="M0.076,-0.531L0.145,-0.531L0.145,-0.436C0.172,-0.472 0.202,-0.5 0.235,-0.518C0.269,-0.536 0.305,-0.545 0.344,-0.545C0.383,-0.545 0.419,-0.535 0.449,-0.515C0.48,-0.494 0.503,-0.467 0.518,-0.433C0.532,-0.399 0.54,-0.346 0.54,-0.273L0.54,-0L0.471,-0L0.471,-0.253C0.471,-0.315 0.469,-0.355 0.464,-0.376C0.456,-0.411 0.44,-0.438 0.418,-0.455C0.396,-0.473 0.366,-0.482 0.33,-0.482C0.289,-0.482 0.252,-0.468 0.219,-0.441C0.186,-0.414 0.165,-0.38 0.154,-0.339C0.148,-0.313 0.145,-0.265 0.145,-0.195L0.145,-0L0.076,-0L0.076,-0.531Z" style="fill-rule:nonzero;"/>
                </g>
                <g transform="matrix(15.513,0,0,15.513,84.3187,19.2382)">
                    <path d="M0.534,-0.531L0.603,-0.531L0.603,-0.108C0.603,-0.033 0.596,0.021 0.583,0.056C0.565,0.104 0.534,0.142 0.49,0.168C0.445,0.195 0.392,0.208 0.33,0.208C0.285,0.208 0.244,0.202 0.207,0.189C0.171,0.176 0.141,0.158 0.119,0.137C0.096,0.115 0.075,0.083 0.056,0.042L0.13,0.042C0.15,0.077 0.176,0.103 0.208,0.12C0.24,0.137 0.28,0.145 0.327,0.145C0.374,0.145 0.413,0.136 0.445,0.119C0.477,0.102 0.5,0.08 0.514,0.054C0.527,0.027 0.534,-0.015 0.534,-0.074L0.534,-0.101C0.508,-0.069 0.477,-0.044 0.44,-0.026C0.403,-0.009 0.363,-0 0.322,-0C0.273,-0 0.227,-0.012 0.184,-0.036C0.141,-0.061 0.107,-0.093 0.084,-0.134C0.061,-0.175 0.049,-0.22 0.049,-0.27C0.049,-0.319 0.061,-0.365 0.085,-0.407C0.11,-0.449 0.144,-0.483 0.187,-0.508C0.23,-0.533 0.276,-0.545 0.324,-0.545C0.363,-0.545 0.4,-0.537 0.435,-0.52C0.469,-0.504 0.502,-0.477 0.534,-0.439L0.534,-0.531ZM0.333,-0.479C0.294,-0.479 0.258,-0.47 0.225,-0.451C0.191,-0.432 0.165,-0.406 0.146,-0.373C0.128,-0.34 0.118,-0.305 0.118,-0.266C0.118,-0.208 0.138,-0.16 0.177,-0.122C0.216,-0.083 0.266,-0.064 0.329,-0.064C0.391,-0.064 0.442,-0.083 0.48,-0.121C0.518,-0.159 0.538,-0.208 0.538,-0.27C0.538,-0.31 0.529,-0.346 0.511,-0.377C0.494,-0.409 0.469,-0.433 0.437,-0.452C0.404,-0.47 0.37,-0.479 0.333,-0.479Z" style="fill-rule:nonzero;"/>
                </g>
                <g transform="matrix(15.513,0,0,15.513,94.7566,19.2382)">
                    <path d="M0.343,-0.473L0.299,-0.428C0.263,-0.463 0.227,-0.481 0.192,-0.481C0.17,-0.481 0.151,-0.474 0.135,-0.459C0.119,-0.444 0.111,-0.427 0.111,-0.408C0.111,-0.39 0.118,-0.374 0.131,-0.358C0.144,-0.342 0.171,-0.324 0.213,-0.302C0.264,-0.276 0.299,-0.25 0.317,-0.226C0.335,-0.201 0.344,-0.174 0.344,-0.143C0.344,-0.099 0.328,-0.062 0.298,-0.032C0.267,-0.001 0.229,0.014 0.183,0.014C0.152,0.014 0.123,0.007 0.095,-0.006C0.067,-0.02 0.044,-0.038 0.026,-0.062L0.069,-0.11C0.104,-0.071 0.141,-0.051 0.18,-0.051C0.207,-0.051 0.231,-0.06 0.25,-0.078C0.269,-0.095 0.279,-0.116 0.279,-0.14C0.279,-0.159 0.272,-0.177 0.26,-0.192C0.247,-0.207 0.218,-0.226 0.174,-0.249C0.126,-0.273 0.093,-0.298 0.076,-0.322C0.058,-0.346 0.05,-0.373 0.05,-0.404C0.05,-0.445 0.064,-0.478 0.091,-0.505C0.119,-0.532 0.153,-0.545 0.196,-0.545C0.244,-0.545 0.294,-0.521 0.343,-0.473Z" style="fill-rule:nonzero;"/>
                </g>
                <g transform="matrix(15.513,0,0,15.513,100.778,19.2382)">
                    <path d="M0.294,-0.531L0.294,-0.471L0.185,-0.471L0.185,-0L0.115,-0L0.115,-0.471L0.045,-0.471L0.045,-0.531L0.115,-0.531L0.115,-0.549C0.115,-0.604 0.12,-0.643 0.131,-0.667C0.142,-0.692 0.16,-0.711 0.184,-0.727C0.209,-0.742 0.237,-0.75 0.27,-0.75C0.302,-0.75 0.331,-0.742 0.355,-0.726C0.38,-0.71 0.397,-0.69 0.407,-0.667C0.417,-0.643 0.422,-0.601 0.422,-0.541L0.422,-0L0.353,-0L0.353,-0.545C0.353,-0.59 0.35,-0.62 0.345,-0.635C0.34,-0.651 0.33,-0.663 0.317,-0.673C0.303,-0.682 0.287,-0.687 0.269,-0.687C0.25,-0.687 0.234,-0.682 0.22,-0.672C0.207,-0.662 0.197,-0.648 0.191,-0.63C0.187,-0.617 0.185,-0.584 0.185,-0.531L0.294,-0.531Z" style="fill-rule:nonzero;"/>
                </g>
                <g transform="matrix(15.513,0,0,15.513,108.3,19.2382)">
                    <path d="M0.605,-0.531L0.605,-0L0.538,-0L0.538,-0.091C0.509,-0.056 0.477,-0.03 0.442,-0.013C0.406,0.005 0.367,0.014 0.325,0.014C0.25,0.014 0.185,-0.014 0.132,-0.068C0.079,-0.123 0.052,-0.189 0.052,-0.267C0.052,-0.344 0.079,-0.409 0.133,-0.463C0.187,-0.518 0.251,-0.545 0.327,-0.545C0.37,-0.545 0.41,-0.536 0.445,-0.517C0.48,-0.499 0.511,-0.471 0.538,-0.434L0.538,-0.531L0.605,-0.531ZM0.332,-0.479C0.294,-0.479 0.259,-0.47 0.227,-0.451C0.195,-0.432 0.169,-0.406 0.15,-0.372C0.131,-0.338 0.122,-0.303 0.122,-0.265C0.122,-0.227 0.131,-0.192 0.15,-0.158C0.17,-0.123 0.195,-0.097 0.228,-0.078C0.26,-0.059 0.295,-0.049 0.332,-0.049C0.369,-0.049 0.405,-0.059 0.438,-0.078C0.472,-0.096 0.497,-0.122 0.515,-0.154C0.533,-0.186 0.542,-0.223 0.542,-0.263C0.542,-0.324 0.522,-0.376 0.482,-0.417C0.441,-0.458 0.391,-0.479 0.332,-0.479ZM0.242,-0.741C0.257,-0.741 0.271,-0.736 0.282,-0.725C0.293,-0.714 0.298,-0.7 0.298,-0.685C0.298,-0.669 0.293,-0.656 0.282,-0.645C0.271,-0.633 0.257,-0.628 0.242,-0.628C0.226,-0.628 0.213,-0.633 0.202,-0.645C0.191,-0.656 0.185,-0.669 0.185,-0.685C0.185,-0.7 0.191,-0.714 0.202,-0.725C0.213,-0.736 0.226,-0.741 0.242,-0.741ZM0.441,-0.741C0.457,-0.741 0.47,-0.736 0.481,-0.725C0.492,-0.714 0.498,-0.7 0.498,-0.685C0.498,-0.669 0.492,-0.656 0.481,-0.645C0.47,-0.633 0.457,-0.628 0.441,-0.628C0.425,-0.628 0.412,-0.633 0.401,-0.645C0.39,-0.656 0.384,-0.669 0.384,-0.685C0.384,-0.7 0.39,-0.714 0.401,-0.725C0.412,-0.736 0.425,-0.741 0.441,-0.741Z" style="fill-rule:nonzero;"/>
                </g>
                <g transform="matrix(15.513,0,0,15.513,118.897,19.2382)">
                    <path d="M0.592,-0.421L0.538,-0.387C0.491,-0.449 0.427,-0.48 0.346,-0.48C0.281,-0.48 0.227,-0.46 0.185,-0.418C0.142,-0.376 0.121,-0.326 0.121,-0.266C0.121,-0.228 0.13,-0.191 0.15,-0.157C0.17,-0.123 0.197,-0.096 0.231,-0.078C0.265,-0.059 0.304,-0.049 0.346,-0.049C0.424,-0.049 0.488,-0.08 0.538,-0.143L0.592,-0.107C0.566,-0.069 0.532,-0.039 0.49,-0.018C0.447,0.003 0.398,0.014 0.343,0.014C0.259,0.014 0.19,-0.013 0.134,-0.066C0.079,-0.12 0.051,-0.185 0.051,-0.261C0.051,-0.313 0.064,-0.36 0.09,-0.405C0.116,-0.449 0.152,-0.483 0.197,-0.508C0.242,-0.533 0.293,-0.545 0.349,-0.545C0.384,-0.545 0.418,-0.54 0.45,-0.529C0.483,-0.518 0.511,-0.504 0.534,-0.487C0.556,-0.47 0.576,-0.448 0.592,-0.421Z" style="fill-rule:nonzero;"/>
                </g>
                <g transform="matrix(15.513,0,0,15.513,128.934,19.2382)">
                    <path d="M0.076,-0.736L0.145,-0.736L0.145,-0.436C0.172,-0.472 0.203,-0.5 0.236,-0.518C0.269,-0.536 0.305,-0.545 0.344,-0.545C0.383,-0.545 0.419,-0.535 0.449,-0.515C0.48,-0.494 0.503,-0.467 0.518,-0.433C0.532,-0.399 0.54,-0.346 0.54,-0.273L0.54,-0L0.471,-0L0.471,-0.253C0.471,-0.315 0.469,-0.355 0.464,-0.376C0.455,-0.411 0.44,-0.438 0.418,-0.455C0.395,-0.473 0.366,-0.482 0.33,-0.482C0.289,-0.482 0.252,-0.468 0.219,-0.441C0.186,-0.414 0.165,-0.38 0.154,-0.339C0.148,-0.313 0.145,-0.265 0.145,-0.195L0.145,-0L0.076,-0L0.076,-0.736Z" style="fill-rule:nonzero;"/>
                </g>
                <g transform="matrix(15.513,0,0,15.513,138.394,19.2382)">
                    <path d="M0.523,-0.176L0.581,-0.146C0.562,-0.109 0.54,-0.079 0.516,-0.056C0.491,-0.033 0.463,-0.016 0.432,-0.004C0.401,0.008 0.366,0.014 0.327,0.014C0.24,0.014 0.172,-0.015 0.124,-0.072C0.075,-0.128 0.05,-0.193 0.05,-0.264C0.05,-0.332 0.071,-0.392 0.112,-0.444C0.165,-0.511 0.235,-0.545 0.323,-0.545C0.414,-0.545 0.486,-0.511 0.54,-0.442C0.578,-0.393 0.598,-0.333 0.599,-0.26L0.121,-0.26C0.122,-0.199 0.142,-0.148 0.18,-0.109C0.218,-0.069 0.265,-0.049 0.321,-0.049C0.348,-0.049 0.374,-0.054 0.4,-0.063C0.426,-0.073 0.447,-0.085 0.465,-0.101C0.483,-0.116 0.503,-0.142 0.523,-0.176ZM0.523,-0.319C0.514,-0.356 0.501,-0.385 0.484,-0.407C0.466,-0.429 0.443,-0.446 0.414,-0.459C0.386,-0.473 0.356,-0.479 0.324,-0.479C0.272,-0.479 0.227,-0.463 0.19,-0.429C0.162,-0.405 0.141,-0.368 0.127,-0.319L0.523,-0.319Z" style="fill-rule:nonzero;"/>
                </g>
                <g transform="matrix(15.513,0,0,15.513,148.476,19.2382)">
                    <path d="M0.076,-0.531L0.145,-0.531L0.145,-0.436C0.172,-0.472 0.202,-0.5 0.235,-0.518C0.269,-0.536 0.305,-0.545 0.344,-0.545C0.383,-0.545 0.419,-0.535 0.449,-0.515C0.48,-0.494 0.503,-0.467 0.518,-0.433C0.532,-0.399 0.54,-0.346 0.54,-0.273L0.54,-0L0.471,-0L0.471,-0.253C0.471,-0.315 0.469,-0.355 0.464,-0.376C0.456,-0.411 0.44,-0.438 0.418,-0.455C0.396,-0.473 0.366,-0.482 0.33,-0.482C0.289,-0.482 0.252,-0.468 0.219,-0.441C0.186,-0.414 0.165,-0.38 0.154,-0.339C0.148,-0.313 0.145,-0.265 0.145,-0.195L0.145,-0L0.076,-0L0.076,-0.531Z" style="fill-rule:nonzero;"/>
                </g>
            </g>
            <g transform="matrix(1,0,0,11.3243,838.944,-11815.6)">
                <path d="M2094.11,1048.69C2094.11,1047.97 2093.52,1047.39 2092.81,1047.39L2070.69,1047.39C2069.97,1047.39 2069.39,1047.97 2069.39,1048.69L2069.39,1064.56C2069.39,1065.28 2069.97,1065.86 2070.69,1065.86L2092.81,1065.86C2093.52,1065.86 2094.11,1065.28 2094.11,1064.56L2094.11,1048.69ZM2091.51,1049.99L2071.99,1049.99L2071.99,1063.27L2091.51,1063.27L2091.51,1049.99Z" style="fill:rgb(51,204,255);"/>
            </g>
        </g>
    </g>
</svg>
