<?xml version="1.0" standalone="no"?>
<!DOCTYPE svg PUBLIC "-//W3C//DTD SVG 20010904//EN"
 "http://www.w3.org/TR/2001/REC-SVG-20010904/DTD/svg10.dtd">
<svg version="1.0" xmlns="http://www.w3.org/2000/svg"
 width="1480.000000pt" height="1480.000000pt" viewBox="0 0 1480.000000 1480.000000"
 preserveAspectRatio="xMidYMid meet">
<metadata>
Created by potrace 1.11, written by Peter Selinger 2001-2013
</metadata>
<g transform="translate(0.000000,1480.000000) scale(0.100000,-0.100000)"
fill="#000000" stroke="none">
<path d="M1840 10618 c0 -1470 -4 -2678 -8 -2684 -4 -6 -43 -30 -87 -53 -438
-236 -803 -547 -1094 -935 -522 -695 -744 -1586 -611 -2446 140 -903 635
-1683 1395 -2202 399 -272 832 -443 1334 -525 156 -25 185 -27 491 -27 306 0
335 2 491 27 412 68 781 196 1119 390 751 430 1302 1137 1530 1962 12 44 24
86 26 92 3 10 440 13 2144 13 l2141 0 -6 -32 c-22 -131 -27 -181 -32 -318 -30
-806 419 -1559 1148 -1925 175 -88 336 -142 559 -187 102 -20 144 -23 365 -23
269 0 352 11 570 71 659 185 1205 718 1409 1377 69 221 76 280 76 620 0 322
-5 373 -58 562 -152 546 -546 1025 -1058 1285 -258 132 -515 201 -849 227
l-100 8 -6 1035 c-6 1112 -3 1047 -58 1225 -26 84 -123 285 -164 340 -72 96
-112 143 -181 211 -260 253 -593 384 -978 384 l-148 0 0 1570 0 1570 -265 0
-265 0 0 -1570 0 -1570 -2080 0 -2080 0 0 2100 0 2100 -2335 0 -2335 0 0
-2672z m4160 292 l0 -1820 -1840 0 -1840 0 0 1820 0 1820 1840 0 1840 0 0
-1820z m-2735 -6680 c784 0 1425 -4 1425 -8 0 -4 -20 -41 -45 -81 -233 -378
-618 -648 -1060 -742 -96 -21 -137 -24 -325 -24 -188 0 -229 3 -325 24 -320
68 -588 214 -821 445 -145 145 -221 250 -312 432 -218 434 -228 929 -27 1384
20 47 42 91 48 99 9 11 13 -169 15 -757 l2 -772 1425 0z m9633 605 c211 -32
407 -127 558 -272 150 -144 239 -296 296 -507 32 -117 32 -374 0 -492 -54
-199 -144 -354 -284 -490 -208 -202 -438 -296 -723 -296 -479 0 -879 311
-1007 782 -19 73 -23 109 -23 250 0 173 16 267 65 378 l19 42 465 0 466 0 0
303 c0 167 3 307 7 310 10 11 54 8 161 -8z"/>
</g>
</svg>
